<svg xmlns="http://www.w3.org/2000/svg" width="1200" height="630" viewBox="0 0 1200 630"><defs><radialGradient id="bg" cx="38%" cy="30%" r="85%"><stop offset="0" stop-color="#5d321d"/><stop offset=".5" stop-color="#1a0f0b"/><stop offset="1" stop-color="#070403"/></radialGradient><linearGradient id="card" x1="0" y1="0" x2="1" y2="1"><stop stop-color="#f4e8cf"/><stop offset=".55" stop-color="#e6d3b5"/><stop offset="1" stop-color="#f6ead5"/></linearGradient></defs><rect width="1200" height="630" fill="url(#bg)"/><ellipse cx="600" cy="565" rx="510" ry="90" fill="#7c4528" opacity=".72"/><ellipse cx="600" cy="547" rx="500" ry="82" fill="#a66a42" opacity=".28"/><g transform="translate(505 45)"><rect x="0" y="0" width="190" height="500" rx="8" fill="url(#card)" stroke="#f9eedb" stroke-width="2"/><rect x="14" y="17" width="162" height="462" fill="none" stroke="#7b1d1e" stroke-width="2"/><rect x="11" y="14" width="12" height="12" fill="#7b1d1e"/><rect x="167" y="14" width="12" height="12" fill="#7b1d1e"/><rect x="11" y="465" width="12" height="12" fill="#7b1d1e"/><rect x="167" y="465" width="12" height="12" fill="#7b1d1e"/><path d="M72 44 L95 19 L118 44 Z" fill="none" stroke="#7b1d1e" stroke-width="1.7"/><text x="95" y="70" text-anchor="middle" font-family="Georgia,serif" font-size="19" font-weight="700" fill="#161311">BOUGIE</text><text x="95" y="84" text-anchor="middle" font-family="Arial,sans-serif" font-size="6.5" font-style="italic" fill="#161311">~ limited availability ~</text><g fill="#171412" font-family="Arial,sans-serif" font-size="6.2" text-anchor="middle"><text x="95" y="111">2020 DOC bolgheri sassicaia</text><text x="95" y="120" font-weight="700">super tuscan, tuscany, italy</text><text x="95" y="129">125 5oz · 75 3oz · 25 1oz</text><text x="95" y="155">2018 opus one</text><text x="95" y="164" font-weight="700">red blend, napa valley, ca</text><text x="95" y="173">120 5oz · 90 3oz · 30 1oz</text><text x="95" y="199">2020 dominus</text><text x="95" y="208" font-weight="700">bordeaux/cabernet blend</text><text x="95" y="217">napa valley, ca</text><text x="95" y="226">110 5oz · 66 3oz · 22 1oz</text><text x="95" y="252">2021 cakebread cellars</text><text x="95" y="261" font-weight="700">cabernet sauvignon</text><text x="95" y="270">napa valley, ca</text><text x="95" y="279">35 5oz · 21 3oz · 7 1oz</text><text x="95" y="305">2021 caymus</text><text x="95" y="314" font-weight="700">cabernet sauvignon</text><text x="95" y="323">napa valley, ca</text><text x="95" y="332">30 5oz · 18 3oz · 6 1oz</text><text x="95" y="358">2021 kosta brown anderson valley</text><text x="95" y="367" font-weight="700">pinot noir</text><text x="95" y="376">sonoma coast, ca</text></g><rect x="37" y="395" width="116" height="48" fill="none" stroke="#7b1d1e" stroke-width="1.5"/><text x="95" y="412" text-anchor="middle" font-family="Arial,sans-serif" font-size="6" fill="#171412">2023 illumination by quintessa</text><text x="95" y="421" text-anchor="middle" font-family="Arial,sans-serif" font-size="6" font-weight="700" fill="#171412">sauvignon blanc</text><path d="M73 456 L95 478 L117 456 Z" fill="none" stroke="#7b1d1e" stroke-width="1.7"/></g><text x="73" y="106" fill="#fff4e8" font-family="Georgia,serif" font-size="54">BOUGIE</text><text x="76" y="144" fill="#d8c2ad" font-family="Arial,sans-serif" font-size="16" letter-spacing="4">FIRE STACK × GRANDCORE</text><text x="76" y="184" fill="#b99d86" font-family="Arial,sans-serif" font-size="18">Public immersive demo</text></svg>